{"title":"Oblivion 2013 CAMrip XviD AC3 - TODE","uid":8363848,"size":731378534,"categoryP":"video","categoryS":"movies","magnet":"?xt=urn:btih:4f8c01044ccb1a19088005757f4f4047a418221c&amp;dn=Oblivion+2013+CAMrip+XviD+AC3+-+TODE&amp;tr=udp%3A%2F%2Ftracker.openbittorrent.com%3A80&amp;tr=udp%3A%2F%2Fopen.demonii.com%3A1337&amp;tr=udp%3A%2F%2Ftracker.coppersurfer.tk%3A6969&amp;tr=udp%3A%2F%2Fexodus.desync.com%3A6969","seeders":4,"leechers":0,"uploader":"xxxlavalxxx","files":-1,"time":1365711785,"description":"\n\n &lt;a href=&quot;\nhttp://www.imdb.com/title/tt1483013/&quot; rel=&quot;nofollow&quot; target=&quot;_NEW&quot;&gt;\nhttp://www.imdb.com/title/tt1483013/&lt;/a&gt;\n\n\n\nA veteran assigned to extract Earth's remaining resources begins to question what he knows about his mission and himself. \n\n\n\nDirector:\n Joseph Kosinski \n\nWriters:\n Joseph Kosinski ,Karl Gajdusek \n\nStars:\n Tom Cruise, Morgan Freeman, Andrea Riseborough \n\nGenres:\n  Action |  Adventure |  Sci-Fi |  Thriller \n\nCountry:\n USA \n\nLanguage:\n English \n\n\nThanks: FOX\n\n\nFormat                                   : AVI\nFormat/Info                              : Audio Video Interleave\nFile size                                : 697 MiB\nDuration                                 : 1h 57mn\nOverall bit rate                         : 833 Kbps\nWriting application                      : Lavf54.59.103\nWriting library                          : VirtualDub build 32842/release\n\nVideo\nID                                       : 0\nFormat                                   : MPEG-4 Visual\nFormat profile                           : Simple@L3\nFormat settings, BVOP                    : No\nFormat settings, QPel                    : No\nFormat settings, GMC                     : No warppoints\nFormat settings, Matrix                  : Default (H.263)\nCodec ID                                 : XVID\nCodec ID/Hint                            : XviD\nDuration                                 : 1h 57mn\nBit rate                                 : 694 Kbps\nWidth                                    : 640 pixels\nHeight                                   : 240 pixels\nDisplay aspect ratio                     : 2.667\nFrame rate                               : 25.000 fps\nColor space                              : YUV\nChroma subsampling                       : 4:2:0\nBit depth                                : 8 bits\nScan type                                : Progressive\nCompression mode                         : Lossy\nBits/(Pixel*Frame)                       : 0.181\nStream size                              : 581 MiB (83%)\nWriting library                          : XviD 1.3.0.dev55\n\nAudio\nID                                       : 1\nFormat                                   : AC-3\nFormat/Info                              : Audio Coding 3\nMode extension                           : CM (complete main)\nFormat settings, Endianness              : Big\nCodec ID                                 : 2000\nDuration                                 : 1h 57mn\nBit rate mode                            : Constant\nBit rate                                 : 128 Kbps\nChannel(s)                               : 2 channels\nChannel positions                        : Front: L R\nSampling rate                            : 48.0 KHz\nBit depth                                : 16 bits\nCompression mode                         : Lossy\nStream size                              : 107 MiB (15%)\nAlignment                                : Aligned on interleaves\nInterleave, duration                     : 32 ms (0.80 video frame)\nInterleave, preload duration             : 512 ms\n\n\n\n\n    &lt;a href=&quot;\thttp://www.shotpix.com/images/38443311873592300442.png&quot; rel=&quot;nofollow&quot; target=&quot;_NEW&quot;&gt;\thttp://www.shotpix.com/images/38443311873592300442.png&lt;/a&gt;\n    &lt;a href=&quot;\thttp://www.shotpix.com/images/43309900276370001904.png&quot; rel=&quot;nofollow&quot; target=&quot;_NEW&quot;&gt;\thttp://www.shotpix.com/images/43309900276370001904.png&lt;/a&gt;\n    &lt;a href=&quot;\thttp://www.shotpix.com/images/32986535485667277955.png&quot; rel=&quot;nofollow&quot; target=&quot;_NEW&quot;&gt;\thttp://www.shotpix.com/images/32986535485667277955.png&lt;/a&gt;\n    &lt;a href=&quot;\thttp://www.shotpix.com/images/40810416343149127545.png&quot; rel=&quot;nofollow&quot; target=&quot;_NEW&quot;&gt;\thttp://www.shotpix.com/images/40810416343149127545.png&lt;/a&gt;\n    &lt;a href=&quot;\thttp://www.shotpix.com/images/67752650157624762519.png&quot; rel=&quot;nofollow&quot; target=&quot;_NEW&quot;&gt;\thttp://www.shotpix.com/images/67752650157624762519.png&lt;/a&gt;","torrent":{"xt":"urn:btih:4f8c01044ccb1a19088005757f4f4047a418221c","amp;dn":"Oblivion+2013+CAMrip+XviD+AC3+-+TODE","amp;tr":["udp%3A%2F%2Ftracker.openbittorrent.com%3A80","udp%3A%2F%2Fopen.demonii.com%3A1337","udp%3A%2F%2Ftracker.coppersurfer.tk%3A6969","udp%3A%2F%2Fexodus.desync.com%3A6969"],"infoHash":"4f8c01044ccb1a19088005757f4f4047a418221c","infoHashBuffer":{"type":"Buffer","data":[79,140,1,4,76,203,26,25,8,128,5,117,127,79,64,71,164,24,34,28]},"announce":[],"urlList":[]}}